<svg width="22" height="22" viewBox="0 0 22 22" fill="none" xmlns="http://www.w3.org/2000/svg">
  <g>
    <path d="M21.805 11.227c0-.818-.073-1.636-.227-2.436H11.22v4.61h5.91c-.255 1.364-1.073 2.545-2.255 3.327v2.745h3.645c2.127-1.945 3.282-4.818 3.282-8.246z" fill="#4285F4"/>
    <path d="M11.22 22c2.97 0 5.455-.982 7.273-2.673l-3.646-2.745c-1 .682-2.273 1.091-3.627 1.091-2.8 0-5.164-1.891-6.018-4.436H1.455v2.8C3.273 19.782 7 22 11.22 22z" fill="#34A853"/>
    <path d="M5.202 13.237c-.227-.682-.364-1.409-.364-2.145 0-.736.136-1.464.364-2.145v-2.8H1.455A10.77 10.77 0 0 0 0 11.092c0 1.764.427 3.464 1.455 4.909l3.747-2.764z" fill="#FBBC05"/>
    <path d="M11.22 4.364c1.618 0 3.055.555 4.191 1.636l3.136-3.136C16.673 1.018 14.19 0 11.22 0 7 0 3.273 2.218 1.455 5.282l3.747 2.8c.854-2.545 3.218-4.436 6.018-4.436z" fill="#EA4335"/>
  </g>
</svg> 